<svg width="762" height="488" viewBox="0 0 762 488" fill="none" xmlns="http://www.w3.org/2000/svg">
<circle cx="579.5" cy="303.5" r="108.5" fill="#4F7CAC"/>
<circle cx="601.5" cy="160.5" r="108.5" fill="#4F7CAC"/>
<circle cx="225.5" cy="329.5" r="108.5" fill="#4F7CAC"/>
<circle cx="140.5" cy="199.5" r="108.5" fill="#4F7CAC"/>
<circle cx="245.5" cy="135.5" r="108.5" fill="#4F7CAC"/>
<circle cx="450.5" cy="141.5" r="108.5" fill="#4F7CAC"/>
<circle cx="222.5" cy="182.5" r="108.5" fill="#1D333D"/>
<circle cx="426.5" cy="340.5" r="108.5" fill="#4F7CAC"/>
<circle cx="535.5" cy="128.5" r="108.5" fill="#1D333D"/>
<circle cx="451.5" cy="153.5" r="108.5" fill="#1D333D"/>
<circle cx="591.5" cy="169.5" r="108.5" fill="#1D333D"/>
<circle cx="434.5" cy="257.5" r="108.5" fill="#1D333D"/>
<circle cx="620.5" cy="195.5" r="108.5" fill="#1D333D"/>
<circle cx="546.5" cy="256.5" r="108.5" fill="#1D333D"/>
<circle cx="530.5" cy="374.5" r="108.5" fill="#1D333D"/>
<circle cx="428.5" cy="329.5" r="108.5" fill="#1D333D"/>
<circle cx="570.5" cy="295.5" r="108.5" fill="#1D333D"/>
<circle cx="318.5" cy="295.5" r="108.5" fill="#1D333D"/>
<circle cx="353.5" cy="108.5" r="108.5" fill="#1D333D"/>
<circle cx="326.5" cy="365.5" r="108.5" fill="#1D333D"/>
<circle cx="231.5" cy="317.5" r="108.5" fill="#1D333D"/>
<circle cx="247.5" cy="147.5" r="108.5" fill="#1D333D"/>
<circle cx="117.5" cy="275.5" r="108.5" fill="#1D333D"/>
<circle cx="158.5" cy="141.5" r="108.5" fill="#1D333D"/>
<circle cx="150.5" cy="203.5" r="108.5" fill="#1D333D"/>
</svg>
